<svg width="115" height="63" viewBox="0 0 115 63" fill="none" xmlns="http://www.w3.org/2000/svg">
<path d="M78.9174 26.9252C78.9185 31.0138 75.8136 34.7819 71.9963 35.329L47.8411 38.7868C47.533 38.8314 47.2215 38.8538 46.9178 38.8549C45.8861 38.8571 44.8713 38.6059 43.9803 38.1225L43.9781 38.1258L38.8143 35.3335C37.23 34.476 36.1124 32.9766 35.6669 31.1076C35.6033 30.8396 35.5542 30.5661 35.5196 30.2925C35.4805 29.9755 35.4604 29.6483 35.4604 29.3179C35.4582 25.2293 38.5598 21.4578 42.377 20.9129L43.8887 20.6963L38.8043 17.9475C36.7053 16.8132 35.4515 14.5624 35.4492 11.9286C35.447 7.84111 38.5508 4.07296 42.3659 3.52588L66.5211 0.0681209C66.8326 0.0234615 67.1441 0.00113164 67.4522 1.51564e-05C68.4995 -0.00221782 69.4876 0.242293 70.3863 0.727965C70.3863 0.727965 75.5747 3.53258 75.5847 3.53928C77.6446 4.66805 78.9062 6.91777 78.9074 9.5337C78.9074 13.6223 75.8035 17.3938 71.9863 17.9408L70.4757 18.1574C71.1143 18.5013 75.5735 20.9141 75.5836 20.9208C77.6513 22.0462 78.9185 24.3015 78.9196 26.9241L78.9174 26.9252ZM74.7306 21.6487C74.7306 21.6487 74.7228 21.6454 74.7194 21.6431C74.5653 21.575 74.4068 21.517 74.2438 21.4634C74.2036 21.4511 74.1612 21.4377 74.1199 21.4265C73.9859 21.3874 73.8497 21.3517 73.7112 21.3238C73.6766 21.316 73.642 21.3082 73.6074 21.3015C73.4377 21.2702 73.2658 21.2468 73.0882 21.2323C73.0536 21.23 73.019 21.2289 72.9844 21.2256C72.8393 21.2166 72.6919 21.2144 72.5423 21.2155C72.4943 21.2155 72.4451 21.2166 72.3982 21.2189C72.2163 21.2278 72.0309 21.2412 71.8433 21.268L47.6882 24.7246C44.3543 25.2002 41.6547 28.5073 41.6558 32.1102C41.6558 32.3737 41.6748 32.6294 41.7027 32.8806C41.7116 32.9576 41.7239 33.0324 41.735 33.1083C41.7618 33.2847 41.7931 33.4567 41.8322 33.6253C41.85 33.7023 41.869 33.7805 41.8891 33.8575C41.9382 34.0384 41.9963 34.2125 42.0599 34.3834C42.0789 34.4358 42.0946 34.4872 42.1146 34.5363C42.2017 34.7518 42.3011 34.9583 42.4105 35.1571C42.4373 35.2051 42.4686 35.2509 42.4965 35.2978C42.5847 35.4463 42.6785 35.5903 42.779 35.7287C42.8225 35.7879 42.8672 35.846 42.9129 35.904C43.0112 36.0279 43.1173 36.1485 43.2256 36.2624C43.2713 36.3104 43.3138 36.3584 43.3606 36.4042C43.5181 36.556 43.6822 36.7001 43.8575 36.8307C43.8653 36.8374 43.8742 36.8419 43.882 36.8474C44.0506 36.9703 44.2259 37.0819 44.4079 37.1835C45.3536 37.7116 46.4812 37.9405 47.6926 37.7674L71.8478 34.3097C75.1816 33.834 77.8858 30.5259 77.8835 26.9275C77.8802 24.4567 76.6029 22.4883 74.7239 21.6521H74.7306V21.6487ZM74.2349 4.07854C74.1913 4.06515 74.1489 4.05175 74.1042 4.03947C73.9725 4.00039 73.8396 3.9669 73.7057 3.93898C73.6688 3.93117 73.6308 3.92224 73.5929 3.91442C73.4243 3.88316 73.2535 3.86083 73.0804 3.84631C73.0436 3.84408 73.0056 3.84297 72.9665 3.83962C72.8247 3.83068 72.6796 3.82733 72.5333 3.82957C72.4842 3.82957 72.4351 3.83068 72.3837 3.83292C72.2017 3.84185 72.0175 3.85525 71.8333 3.88204L47.6781 7.33869C44.3443 7.81654 41.6435 11.1213 41.6457 14.7209C41.6457 14.9844 41.6647 15.2401 41.6926 15.4913C41.7015 15.5683 41.7138 15.6431 41.725 15.719C41.7518 15.8966 41.7831 16.0685 41.8221 16.2371C41.84 16.3141 41.859 16.3945 41.8791 16.4693C41.9282 16.6491 41.9863 16.8244 42.0499 16.9952C42.0689 17.0454 42.0845 17.099 42.1046 17.1493C42.1917 17.3647 42.2911 17.5713 42.4005 17.7689C42.4284 17.818 42.4596 17.8638 42.4876 17.9118C42.5746 18.0603 42.6684 18.2032 42.7689 18.3394C42.8125 18.3997 42.8571 18.4567 42.904 18.5158C43.0023 18.6398 43.1083 18.7592 43.2166 18.872C43.2624 18.92 43.3071 18.968 43.3528 19.0149C43.5103 19.1668 43.6744 19.313 43.8497 19.4414C43.8586 19.4481 43.8675 19.4526 43.8753 19.4582C44.0428 19.581 44.2192 19.6926 44.4012 19.792C45.3469 20.3201 46.4745 20.549 47.6859 20.3748L71.8422 16.9181C75.1761 16.4403 77.8802 13.1344 77.878 9.53258C77.8768 7.0618 76.6007 5.09566 74.7217 4.2583C74.7183 4.25718 74.7138 4.25272 74.7105 4.2516C74.5564 4.18573 74.3979 4.12767 74.2371 4.07519L74.2349 4.07743V4.07854Z" fill="white"/>
<path d="M0.00224009 56.5857C-0.0267886 56.1034 0.22777 55.8477 0.681064 55.8466L3.83179 55.8388C4.25717 55.8388 4.48494 56.0922 4.57091 56.5467C4.74396 57.8228 5.45516 58.3319 6.78937 58.3297C8.35021 58.3263 9.05807 57.614 9.05472 56.3937L9.02234 43.1957C9.02234 42.7413 9.27578 42.4856 9.73019 42.4845L12.853 42.4767C13.3074 42.4767 13.5631 42.7301 13.5642 43.1845L13.5966 56.3825C13.6078 60.7536 10.3197 62.7487 6.80053 62.7577C3.45107 62.7666 0.324905 60.9858 0.00112337 56.5869H0.00224009V56.5857Z" fill="white"/>
<path d="M28.6788 48.8213L28.71 61.5939C28.71 62.0483 28.4566 62.304 28.0022 62.3051L25.1629 62.3129C24.7085 62.3129 24.4529 62.0594 24.4517 61.605V61.0189C23.7852 62.007 22.5794 62.7171 20.764 62.7215C18.1235 62.7282 16.2165 60.6895 16.2076 57.1413L16.1875 48.8536C16.1875 48.3992 16.4409 48.1435 16.8954 48.1424L19.7346 48.1346C20.189 48.1346 20.4447 48.3881 20.4458 48.8425L20.4659 56.7617C20.4692 58.1808 21.2943 58.8027 22.3728 58.8004C23.6501 58.7971 24.4428 58.0848 24.4395 56.4111L24.4205 48.8324C24.4205 48.378 24.6739 48.1223 25.1283 48.1212L27.9676 48.1134C28.422 48.1134 28.6776 48.3668 28.6788 48.8213Z" fill="white"/>
<path d="M43.0621 58.009C43.0699 61.2736 40.2932 62.6715 37.1704 62.6793C34.2754 62.6871 31.6605 61.3875 31.3122 58.3786C31.2541 57.8962 31.5377 57.6406 31.9921 57.6395L34.7744 57.6316C35.1998 57.6316 35.3427 57.8572 35.5414 58.2256C35.7692 58.7079 36.3096 58.9904 37.1615 58.9882C38.3528 58.9859 38.8061 58.5862 38.8049 58.0191C38.7994 55.9748 31.3959 57.8672 31.3825 52.3618C31.3747 49.1542 34.1514 47.6994 37.1324 47.6916C39.7729 47.6849 42.3587 48.9844 42.7059 51.9923C42.764 52.4746 42.4804 52.7303 42.026 52.7314L39.2437 52.7392C38.8183 52.7392 38.6754 52.5137 38.4767 52.1162C38.2768 51.6629 37.7945 51.3804 37.1403 51.3815C36.0908 51.3838 35.6375 51.7835 35.6386 52.3507C35.6442 54.4519 43.0476 52.4735 43.061 58.0079L43.0621 58.009Z" fill="white"/>
<path d="M52.9748 48.7599L52.9815 51.4283C52.9815 51.8827 52.7281 52.1384 52.2737 52.1395L50.7128 52.1428L50.7374 61.5381C50.7374 61.9925 50.4839 62.2482 50.0295 62.2493L47.1903 62.2571C46.7359 62.2571 46.4802 62.0037 46.4791 61.5492L46.4545 52.154L44.8937 52.1574C44.4393 52.1574 44.1836 51.9039 44.1825 51.4495L44.1758 48.7811C44.1758 48.3267 44.4292 48.071 44.8836 48.0699L46.4445 48.0665L46.4344 44.2348C46.4344 43.7804 46.6879 43.5247 47.1423 43.5236L49.9815 43.5157C50.4359 43.5157 50.6916 43.7692 50.6927 44.2236L50.7028 48.0554L52.2636 48.052C52.718 48.052 52.9737 48.3055 52.9748 48.7599Z" fill="white"/>
<path d="M59.6367 46.725L59.6468 50.8403L66.032 50.8236C66.4864 50.8236 66.7421 51.077 66.7432 51.5315L66.751 54.4834C66.751 54.9379 66.4976 55.1935 66.0431 55.1946L59.658 55.2114L59.6747 61.5117C59.6747 61.9661 59.4213 62.2218 58.9668 62.2229L55.844 62.2307C55.3896 62.2307 55.134 61.9773 55.1328 61.5229L55.0859 43.0741C55.0859 42.6196 55.3394 42.364 55.7938 42.3629L59.6256 42.3528L66.1548 42.3361C66.6092 42.3361 66.8649 42.5895 66.866 43.0439L66.8738 45.9959C66.8738 46.4503 66.6204 46.706 66.166 46.7071L59.6367 46.7239V46.725Z" fill="white"/>
<path d="M81.4131 48.6884L81.4444 61.4611C81.4444 61.9155 81.191 62.1711 80.7365 62.1723L77.8973 62.1801C77.4429 62.1801 77.1872 61.9266 77.1861 61.4722V60.8861C76.5196 61.8742 75.3138 62.5842 73.4984 62.5887C70.8579 62.5954 68.9509 60.5567 68.942 57.0085L68.9219 48.7208C68.9219 48.2664 69.1753 48.0107 69.6297 48.0096L72.469 48.0018C72.9234 48.0018 73.179 48.2552 73.1802 48.7097L73.2003 56.6289C73.2036 58.048 74.0287 58.6698 75.1072 58.6676C76.3845 58.6643 77.1772 57.9519 77.1738 56.2783L77.1549 48.6996C77.1549 48.2452 77.4083 47.9895 77.8627 47.9884L80.7019 47.9806C81.1563 47.9806 81.412 48.234 81.4131 48.6884Z" fill="white"/>
<path d="M97.0337 53.135L97.0538 61.4227C97.0538 61.8771 96.8003 62.1328 96.3459 62.1339L93.5067 62.1417C93.0523 62.1417 92.7966 61.8883 92.7955 61.4339L92.7754 53.5146C92.772 52.0956 91.947 51.4737 90.8684 51.4759C89.5912 51.4793 88.7985 52.1905 88.8018 53.8652L88.8208 61.4439C88.8208 61.8983 88.5673 62.154 88.1129 62.1551L85.2737 62.1629C84.8193 62.1629 84.5636 61.9095 84.5625 61.4551L84.5312 48.6825C84.5312 48.2281 84.7847 47.9724 85.2391 47.9713L88.0783 47.9635C88.5327 47.9635 88.7884 48.2169 88.7895 48.6713V49.2575C89.4561 48.2694 90.6619 47.5593 92.4773 47.5548C95.1178 47.5481 97.0247 49.5868 97.0337 53.135Z" fill="white"/>
<path d="M114.323 42.9278L114.37 61.3767C114.37 61.8311 114.117 62.0868 113.662 62.0879L110.823 62.0957C110.369 62.0957 110.113 61.8423 110.112 61.3878V60.7727C109.165 61.8568 107.784 62.501 105.885 62.5066C102.167 62.5155 99.0921 59.2598 99.0821 55.0306C99.072 50.8013 102.129 47.5289 105.847 47.52C107.746 47.5144 109.129 48.153 110.079 49.2315L110.063 42.9379C110.063 42.4835 110.316 42.2278 110.771 42.2267L113.61 42.2189C114.064 42.2189 114.32 42.4723 114.321 42.9267H114.322L114.323 42.9278ZM110.096 55.0015C110.091 52.8735 108.668 51.5427 106.71 51.5471C104.75 51.5527 103.336 52.8891 103.34 55.0183C103.346 57.1463 104.768 58.4772 106.727 58.4727C108.686 58.4671 110.101 57.1307 110.096 55.0015Z" fill="white"/>
</svg>
