<?xml version="1.0" encoding="UTF-8"?>
<svg id="Layer_1" data-name="Layer 1" xmlns="http://www.w3.org/2000/svg" viewBox="0 0 2036.91 1080">
  <path d="M1038.55,912.02h-2.27c-2.52-4.53-6.48-9.94-11.89-16.23-5.42-6.29-12.65-11.76-21.71-16.42-9.06-4.66-20.51-6.99-34.35-6.99-15.1,0-28.31,2.96-39.64,8.87-11.32,5.92-20.76,13.84-28.31,23.78-7.55,9.95-13.16,21.08-16.8,33.41-3.65,12.33-5.47,24.92-5.47,37.75s1.82,25.42,5.47,37.75c3.64,12.33,9.25,23.47,16.8,33.41,7.55,9.95,16.99,17.87,28.31,23.78,11.32,5.91,24.54,8.87,39.64,8.87,13.84,0,25.29-2.33,34.35-6.98,9.06-4.66,16.29-10.06,21.71-16.23,5.41-6.16,9.37-11.64,11.89-16.42h2.27v35.86h27.93v-286.89h-27.93v122.68ZM1030.8,1013.94c-4.91,12.08-12.21,22.02-21.89,29.82-9.69,7.8-21.83,11.7-36.43,11.7s-27.18-3.9-36.99-11.7c-9.81-7.8-17.12-17.74-21.89-29.82-4.78-12.08-7.17-24.66-7.17-37.75s2.39-25.67,7.17-37.75c4.78-12.08,12.08-22.02,21.89-29.82,9.81-7.8,22.14-11.7,36.99-11.7s26.74,3.91,36.43,11.7c9.68,7.8,16.99,17.74,21.89,29.82,4.91,12.08,7.36,24.67,7.36,37.75s-2.45,25.67-7.36,37.75Z"/>
  <path d="M210.45,980.15c4.91-18.75,7.36-40.45,7.36-65.12h-24.54c0,20.13-1.76,37.94-5.29,53.41-3.53,15.48-8.43,28.88-14.72,40.2l-75.12-84.56c19.12-9.31,33.65-20.01,43.6-32.09,9.94-12.08,14.91-25.79,14.91-41.15,0-12.33-3.02-22.84-9.06-31.52-6.04-8.68-13.78-15.22-23.21-19.63-9.44-4.4-19.44-6.61-30.01-6.61-11.32,0-21.96,2.4-31.9,7.17-9.95,4.78-18,11.77-24.16,20.95-6.17,9.19-9.25,20.7-9.25,34.54,0,9.57,1.63,18.25,4.91,26.04,3.27,7.8,7.17,14.66,11.7,20.57,4.53,5.92,8.68,11.14,12.46,15.67l1.13,1.13c-16.86,9.31-30.95,20.45-42.28,33.41-11.33,12.96-16.99,28.88-16.99,47.75,0,16.61,4.21,30.83,12.65,42.66,8.43,11.83,19.75,20.95,33.97,27.37,14.22,6.42,29.88,9.63,47,9.63,14.59,0,28.69-2.52,42.28-7.55,13.59-5.03,25.92-12.84,36.99-23.4l23.78,26.8h35.86l-42.28-47.94c8.55-13.08,15.29-29,20.19-47.75ZM54.36,855.02c0-12.33,4.02-21.9,12.08-28.69,8.05-6.79,17.37-10.19,27.94-10.19,9.56,0,18.12,3.09,25.67,9.25,7.55,6.17,11.32,15.17,11.32,26.99s-3.77,21.33-11.32,30.01c-7.55,8.68-18.37,16.3-32.46,22.84l-4.15,2.27-2.26-2.64c-6.3-7.04-12.33-14.59-18.12-22.65-5.79-8.05-8.68-17.11-8.68-27.18ZM128.35,1049.42c-10.57,4.03-21.65,6.04-33.22,6.04-12.33,0-23.66-2.26-33.98-6.79-10.32-4.53-18.63-11.01-24.91-19.44-6.29-8.43-9.44-18.69-9.44-30.77,0-15.1,4.72-27.62,14.16-37.56,9.44-9.94,20.45-18.31,33.03-25.1l82.67,94.75c-8.31,8.56-17.74,14.85-28.31,18.88Z"/>
  <polygon points="490.74 971.28 400.14 796.88 361.26 796.88 361.26 1076.23 389.95 1076.23 389.95 837.65 477.15 1004.5 504.33 1004.5 591.53 838.41 591.53 1076.23 620.22 1076.23 620.22 796.88 581.33 796.88 490.74 971.28"/>
  <path d="M801.86,884.08c-12.97-7.8-27.75-11.7-44.36-11.7s-29.51,2.96-40.96,8.87c-11.46,5.92-20.95,13.91-28.5,23.97-7.55,10.07-13.15,21.27-16.8,33.6-3.65,12.33-5.47,24.79-5.47,37.37s1.82,25.04,5.47,37.37c3.64,12.33,9.25,23.54,16.8,33.6,7.55,10.07,17.24,18.06,29.07,23.97,11.83,5.91,25.79,8.87,41.9,8.87,14.09,0,25.92-2.14,35.48-6.42,9.56-4.28,17.42-9.56,23.59-15.85,6.16-6.29,10.88-12.58,14.16-18.87,3.27-6.29,6.16-13.59,8.68-21.89h-26.8c-3.28,7.55-6.86,13.91-10.76,19.06-3.9,5.16-9.5,9.69-16.8,13.59-7.3,3.9-16.49,5.85-27.56,5.85-13.34,0-24.72-3.27-34.16-9.81-9.44-6.54-16.74-15.22-21.9-26.05-5.16-10.82-7.99-22.65-8.49-35.48h149.11v-8.31c0-22.9-3.72-41.96-11.14-57.19-7.42-15.22-17.62-26.73-30.58-34.54ZM694.84,961.47c1.76-19.38,8.17-34.92,19.25-46.62,11.07-11.7,25.54-17.55,43.41-17.55,9.82,0,19,2.14,27.56,6.42,8.55,4.28,15.54,11.13,20.95,20.57,5.41,9.44,8.49,21.84,9.25,37.18h-120.42Z"/>
  <path d="M1134.46,797.64c-5.79,0-10.57,1.95-14.34,5.85-3.77,3.9-5.66,8.62-5.66,14.16s1.89,9.95,5.66,13.97c3.77,4.03,8.55,6.04,14.34,6.04s10.25-1.95,14.16-5.85c3.9-3.9,5.85-8.62,5.85-14.16s-1.95-10.25-5.85-14.16c-3.9-3.9-8.62-5.85-14.16-5.85Z"/>
  <path d="M1586.08,797.64c-5.79,0-10.57,1.95-14.35,5.85-3.77,3.9-5.66,8.62-5.66,14.16s1.89,9.95,5.66,13.97c3.77,4.03,8.55,6.04,14.35,6.04s10.25-1.95,14.16-5.85c3.9-3.9,5.85-8.62,5.85-14.16s-1.95-10.25-5.85-14.16c-3.91-3.9-8.62-5.85-14.16-5.85Z"/>
  <rect x="1572.11" y="876.15" width="28.31" height="200.07"/>
  <path d="M2028.79,910.13c-5.41-11.57-13.28-20.76-23.59-27.56-10.32-6.79-22.9-10.19-37.75-10.19-12.33,0-22.53,2.27-30.58,6.79-8.05,4.53-14.34,9.76-18.87,15.67-4.53,5.92-7.68,10.76-9.44,14.54h-1.89v-33.22h-28.31v200.07h28.31v-112.11c0-10.82,1.89-21.39,5.66-31.71,3.77-10.32,9.63-18.75,17.55-25.29,7.93-6.54,18.18-9.81,30.77-9.81,15.86,0,27.87,5.09,36.05,15.29,8.17,10.19,12.27,22.97,12.27,38.32v125.33h27.94v-126.84c0-14.59-2.71-27.68-8.12-39.26Z"/>
  <path d="M1477.93,1025.26v-125.71h49.45v-23.4h-49.45v-50.58h-28.31v50.58h-36.24v23.4h36.24v125.71c0,17.36,4.78,30.83,14.34,40.39,9.56,9.57,23.65,14.34,42.28,14.34,7.3,0,16.61-1.13,27.94-3.4v-24.16c-10.32,2.02-18.25,3.02-23.78,3.02-21.65,0-32.47-10.06-32.47-30.2Z"/>
  <path d="M1811.43,904.47c-8.06-9.81-18.12-17.61-30.2-23.4-12.08-5.78-26.05-8.68-41.9-8.68s-29.76,2.9-41.71,8.68c-11.96,5.79-22.03,13.59-30.2,23.4-8.18,9.82-14.28,20.89-18.31,33.22-4.03,12.33-6.04,25.17-6.04,38.5s2.01,25.86,6.04,38.31c4.02,12.46,10.13,23.59,18.31,33.41,8.18,9.81,18.24,17.62,30.2,23.4,11.95,5.78,25.86,8.68,41.71,8.68s29.82-2.9,41.9-8.68c12.08-5.79,22.14-13.59,30.2-23.4,8.05-9.82,14.16-20.95,18.31-33.41,4.15-12.46,6.23-25.23,6.23-38.31s-2.08-26.17-6.23-38.5c-4.15-12.33-10.26-23.4-18.31-33.22ZM1799.54,1014.13c-5.16,11.95-12.78,21.71-22.84,29.26-10.07,7.55-22.53,11.32-37.37,11.32s-27.31-3.77-37.37-11.32c-10.07-7.55-17.62-17.3-22.65-29.26-5.04-11.95-7.55-24.6-7.55-37.94s2.51-25.98,7.55-37.94c5.03-11.95,12.58-21.71,22.65-29.26,10.06-7.55,22.52-11.32,37.37-11.32s27.3,3.77,37.37,11.32c10.06,7.55,17.68,17.31,22.84,29.26,5.15,11.96,7.74,24.6,7.74,37.94s-2.58,25.99-7.74,37.94Z"/>
  <rect x="1120.49" y="876.15" width="28.31" height="200.07"/>
  <path d="M1352.76,912.02h-2.27c-2.52-4.53-6.48-9.94-11.89-16.23-5.41-6.29-12.65-11.76-21.71-16.42-9.06-4.66-20.51-6.99-34.35-6.99-15.1,0-28.31,2.96-39.64,8.87-11.32,5.92-20.76,13.84-28.31,23.78-7.55,9.95-13.15,21.08-16.8,33.41-3.65,12.33-5.47,24.92-5.47,37.75s1.82,25.42,5.47,37.75c3.65,12.33,9.25,23.47,16.8,33.41,7.55,9.95,16.99,17.87,28.31,23.78,11.32,5.91,24.54,8.87,39.64,8.87,13.84,0,25.29-2.33,34.35-6.98,9.06-4.66,16.29-10.06,21.71-16.23,5.41-6.16,9.37-11.64,11.89-16.42h2.27v35.86h27.93v-200.07h-27.93v35.86ZM1345.02,1013.94c-4.91,12.08-12.21,22.02-21.9,29.82-9.69,7.8-21.83,11.7-36.43,11.7s-27.18-3.9-36.99-11.7c-9.81-7.8-17.12-17.74-21.89-29.82-4.78-12.08-7.17-24.66-7.17-37.75s2.39-25.67,7.17-37.75c4.78-12.08,12.08-22.02,21.89-29.82,9.82-7.8,22.14-11.7,36.99-11.7s26.74,3.91,36.43,11.7c9.68,7.8,16.99,17.74,21.9,29.82,4.91,12.08,7.36,24.67,7.36,37.75s-2.45,25.67-7.36,37.75Z"/>
  <polygon points="185.35 445.44 185.35 419.39 8.68 419.39 8.68 698.74 37.75 698.74 37.75 573.03 167.61 573.03 167.61 546.99 37.75 546.99 37.75 445.44 185.35 445.44"/>
  <polygon points="1949.44 498.66 1920.37 498.66 1867.9 660.61 1814.67 498.66 1787.49 498.66 1733.89 660.61 1681.8 498.66 1652.73 498.66 1718.41 698.74 1748.99 698.74 1801.08 540.19 1853.18 698.74 1883.38 698.74 1949.44 498.66"/>
  <rect x="779.81" y="498.66" width="28.31" height="200.07"/>
  <path d="M807.93,426c-3.91-3.9-8.63-5.85-14.16-5.85s-10.57,1.95-14.34,5.85c-3.78,3.9-5.67,8.62-5.67,14.16s1.89,9.95,5.67,13.97c3.77,4.03,8.55,6.04,14.34,6.04s10.25-1.95,14.16-5.85c3.9-3.9,5.85-8.62,5.85-14.16s-1.95-10.25-5.85-14.16Z"/>
  <polygon points="889.95 411.84 862.02 411.84 861.64 698.74 889.95 698.74 889.95 411.84"/>
  <path d="M369.71,662.87v35.86h27.93v-200.07h-27.93v35.86h-2.27c-2.52-4.53-6.48-9.94-11.89-16.23-5.41-6.29-12.65-11.76-21.71-16.42-9.06-4.66-20.51-6.99-34.35-6.99-15.1,0-28.31,2.96-39.64,8.87-11.32,5.92-20.76,13.84-28.31,23.78-7.55,9.95-13.16,21.08-16.8,33.41-3.65,12.33-5.47,24.92-5.47,37.75s1.82,25.42,5.47,37.75c3.64,12.33,9.25,23.47,16.8,33.41,7.55,9.95,16.99,17.87,28.31,23.78,11.32,5.91,24.54,8.87,39.64,8.87,13.84,0,25.29-2.33,34.35-6.98,9.06-4.66,16.29-10.06,21.71-16.23,5.41-6.16,9.37-11.63,11.89-16.42h2.27ZM340.08,666.27c-9.69,7.8-21.83,11.7-36.43,11.7s-27.18-3.9-36.99-11.7c-9.81-7.8-17.12-17.74-21.89-29.82-4.78-12.08-7.17-24.66-7.17-37.75s2.39-25.67,7.17-37.75c4.78-12.08,12.08-22.02,21.89-29.82,9.81-7.8,22.14-11.7,36.99-11.7s26.74,3.91,36.43,11.7c9.68,7.8,16.99,17.74,21.89,29.82,4.91,12.08,7.36,24.67,7.36,37.75s-2.45,25.67-7.36,37.75c-4.91,12.08-12.21,22.02-21.89,29.82Z"/>
  <polygon points="1262.83 419.39 1233.76 419.39 1233.76 698.74 1408.92 698.74 1408.92 672.69 1262.83 672.69 1262.83 419.39"/>
  <path d="M1017.09,664.38l-62.66-165.72h-29.45l78.14,202.33c-6.55,16.1-14.85,27.94-24.91,35.48-10.07,7.55-22.78,11.32-38.13,11.32-4.28,0-10.32-.38-18.12-1.13v24.54c7.04.76,13.34,1.13,18.87,1.13,21.14,0,38.94-5.6,53.42-16.8,14.47-11.2,26.36-28.5,35.67-51.9l80.03-204.98h-29.82l-63.04,165.72Z"/>
  <path d="M688.99,534.72c8.05,9.94,12.08,23.59,12.08,40.96v123.06h27.94v-124.19c0-23.91-5.92-43.16-17.74-57.76-11.83-14.59-28.31-21.89-49.45-21.89-17.37,0-31.21,4.34-41.52,13.02-10.32,8.68-18.12,18.69-23.4,30.01h-.38c-4.78-13.34-12.4-23.84-22.84-31.52-10.45-7.67-23.22-11.51-38.32-11.51-11.83,0-21.65,2.14-29.44,6.42-7.8,4.28-13.97,9.25-18.5,14.91s-7.8,10.63-9.81,14.91h-1.51v-32.47h-28.31v200.07h28.31v-109.85c0-10.82,1.76-21.58,5.29-32.27,3.52-10.69,9.18-19.5,16.99-26.42,7.8-6.92,17.99-10.38,30.58-10.38,14.59,0,25.79,4.97,33.6,14.91,7.8,9.94,11.7,23.59,11.7,40.96v123.06h28.31v-109.85c0-11.07,1.76-21.89,5.28-32.46,3.52-10.57,9.18-19.31,16.99-26.24,7.8-6.92,17.99-10.38,30.58-10.38,14.34,0,25.54,4.97,33.6,14.91Z"/>
  <path d="M1592.45,534.53h-2.27c-2.52-4.53-6.48-9.94-11.89-16.23-5.41-6.29-12.65-11.76-21.71-16.42-9.06-4.66-20.51-6.99-34.35-6.99-15.1,0-28.31,2.96-39.64,8.87-11.32,5.92-20.76,13.84-28.31,23.78-7.55,9.95-13.15,21.08-16.8,33.41-3.65,12.33-5.47,24.92-5.47,37.75s1.82,25.42,5.47,37.75c3.65,12.33,9.25,23.47,16.8,33.41,7.55,9.95,16.99,17.87,28.31,23.78,11.32,5.91,24.54,8.87,39.64,8.87,13.84,0,25.29-2.33,34.35-6.98,9.06-4.66,16.29-10.06,21.71-16.23,5.41-6.16,9.37-11.63,11.89-16.42h2.27v35.86h27.93v-200.07h-27.93v35.86ZM1584.71,636.45c-4.91,12.08-12.21,22.02-21.9,29.82-9.69,7.8-21.83,11.7-36.43,11.7s-27.18-3.9-36.99-11.7c-9.81-7.8-17.12-17.74-21.89-29.82-4.78-12.08-7.17-24.66-7.17-37.75s2.39-25.67,7.17-37.75c4.78-12.08,12.08-22.02,21.89-29.82,9.82-7.8,22.14-11.7,36.99-11.7s26.74,3.91,36.43,11.7c9.68,7.8,16.99,17.74,21.9,29.82,4.91,12.08,7.36,24.67,7.36,37.75s-2.45,25.67-7.36,37.75Z"/>
  <path d="M830.55,296.42v-17.7h-2.73c-14.47,15.2-34.71,17.7-68.46,17.7h-116.15L830.55,26.49V0h-223.57v42.36h2.73c12.98-13.64,30.71-17.03,58.58-17.59l124.65-.11-185.97,270.11v26.48h223.57v-24.82Z"/>
  <path d="M1076.73,321.24v-42.53h-2.73c-14.47,15.2-34.71,17.7-68.46,17.7h-94.2v-126.72h71.63c33.75,0,54,2.5,68.46,17.7h2.73v-60.06h-2.73c-14.47,15.2-34.71,17.7-68.46,17.7h-71.63V24.66h92.03c33.75,0,54,2.5,68.46,17.7h2.73V0h-209.23v2.73c11.54,16.17,12.57,34.71,12.57,68.46v178.85c0,33.75-1.03,52.29-12.57,68.46v2.73h211.4Z"/>
  <path d="M1318.22,321.24v-42.53h-2.73c-14.47,15.2-34.71,17.7-68.46,17.7h-96.81V71.2c0-33.75,1.03-52.29,12.58-68.46V0h-58.57v2.73c11.54,16.17,12.57,34.71,12.57,68.46v178.85c0,33.75-1.03,52.29-12.57,68.46v2.73h214Z"/>
  <path d="M546.3,256.53c-.05-.14-91.52-256.53-91.52-256.53h-41.24l-89.98,253.17c-11.38,31.79-19.05,49.68-35.79,65.34v2.73h64.21v-2.73c-7.79-15.52-4.04-33.95,7.25-66.43l4.82-13.75h140.65l4.3,12.26c11.69,33.4,15.68,52.17,7.77,67.92v2.73h64.22v-2.73c-16.15-15.1-23.96-32.27-34.69-61.98ZM374.47,207.94l59.9-169.3,59.91,169.3h-119.81Z"/>
  <path d="M46,321.24h12.57v-2.73c-11.54-16.17-12.57-34.71-12.57-68.46v-78.57h161.06v78.57c0,33.75-1.03,52.29-12.57,68.46v2.73h58.57v-2.73c-11.54-16.17-12.57-34.71-12.57-68.46V71.2c0-33.75,1.03-52.29,12.57-68.46V0h-58.57v2.73c11.54,16.17,12.57,34.71,12.57,68.46v69.9H46v-69.9c0-33.75,1.03-52.29,12.57-68.46V0H0v2.73c11.54,16.17,12.57,34.71,12.57,68.46v178.85c0,33.75-1.03,52.29-12.57,68.46v2.73h46Z"/>
</svg>