<?xml version="1.0" encoding="UTF-8"?>
<svg id="Layer_1" data-name="Layer 1" xmlns="http://www.w3.org/2000/svg" viewBox="0 0 1080 263.19">
  <defs>
    <style>
      .cls-1 {
        fill: #bf8c69;
      }
    </style>
  </defs>
  <path class="cls-1" d="M680.45,242.85v-14.5h-2.24c-11.85,12.46-28.44,14.5-56.09,14.5h-95.16L680.45,21.7V0h-183.16v34.71h2.24c10.64-11.18,25.16-13.96,48-14.41l102.13-.09-152.36,221.3v21.69h183.16v-20.34Z"/>
  <path class="cls-1" d="M882.15,263.19v-34.84h-2.24c-11.85,12.46-28.44,14.5-56.09,14.5h-77.18v-103.82h58.68c27.65,0,44.24,2.04,56.09,14.5h2.24v-49.21h-2.24c-11.85,12.46-28.44,14.5-56.09,14.5h-58.68V20.2h75.4c27.65,0,44.24,2.04,56.09,14.5h2.24V0h-171.42v2.24c9.46,13.25,10.3,28.44,10.3,56.09v146.53c0,27.65-.85,42.84-10.3,56.09v2.24h173.2Z"/>
  <path class="cls-1" d="M1080,263.19v-34.84h-2.24c-11.85,12.46-28.44,14.5-56.09,14.5h-79.31V58.33c0-27.65.85-42.84,10.3-56.09V0h-47.99v2.24c9.45,13.25,10.3,28.44,10.3,56.09v146.53c0,27.65-.85,42.84-10.3,56.09v2.24h175.33Z"/>
  <path class="cls-1" d="M447.58,210.17c-.04-.11-74.98-210.17-74.98-210.17h-33.79l-73.72,207.42c-9.32,26.05-15.61,40.7-29.32,53.53v2.24h52.61v-2.24c-6.38-12.72-3.31-27.81,5.94-54.43l3.95-11.27h115.23l3.52,10.04c9.58,27.36,12.85,42.74,6.37,55.65v2.24h52.61v-2.24c-13.23-12.37-19.63-26.44-28.42-50.78ZM306.8,170.36l49.08-138.7,49.08,138.7h-98.16Z"/>
  <path class="cls-1" d="M37.69,263.19h10.3v-2.24c-9.46-13.25-10.3-28.44-10.3-56.09v-64.37h131.95v64.37c0,27.65-.85,42.84-10.3,56.09v2.24h47.99v-2.24c-9.46-13.25-10.3-28.44-10.3-56.09V58.33c0-27.65.85-42.84,10.3-56.09V0h-47.99v2.24c9.46,13.25,10.3,28.44,10.3,56.09v57.27H37.69v-57.27c0-27.65.85-42.84,10.3-56.09V0H0v2.24c9.46,13.25,10.3,28.44,10.3,56.09v146.53c0,27.65-.85,42.84-10.3,56.09v2.24h37.69Z"/>
</svg>